<?xml version="1.0" standalone="no"?><svg xmlns="http://www.w3.org/2000/svg" viewBox="0 0 1440 320"><path fill="#e7008a" fill-opacity="1" d="M0,256L10.4,218.7C20.9,181,42,107,63,64C83.5,21,104,11,125,58.7C146.1,107,167,213,188,256C208.7,299,230,277,250,245.3C271.3,213,292,171,313,170.7C333.9,171,355,213,376,213.3C396.5,213,417,171,438,165.3C459.1,160,480,192,501,186.7C521.7,181,543,139,563,144C584.3,149,605,203,626,213.3C647,224,668,192,689,186.7C709.6,181,730,203,751,218.7C772.2,235,793,245,814,208C834.8,171,856,85,877,90.7C897.4,96,918,192,939,218.7C960,245,981,203,1002,181.3C1022.6,160,1043,160,1064,165.3C1085.2,171,1106,181,1127,202.7C1147.8,224,1169,256,1190,272C1210.4,288,1231,288,1252,277.3C1273,267,1294,245,1315,229.3C1335.7,213,1357,203,1377,170.7C1398.3,139,1419,85,1430,58.7L1440,32L1440,320L1429.6,320C1419.1,320,1398,320,1377,320C1356.5,320,1336,320,1315,320C1293.9,320,1273,320,1252,320C1231.3,320,1210,320,1190,320C1168.7,320,1148,320,1127,320C1106.1,320,1085,320,1064,320C1043.5,320,1023,320,1002,320C980.9,320,960,320,939,320C918.3,320,897,320,877,320C855.7,320,835,320,814,320C793,320,772,320,751,320C730.4,320,710,320,689,320C667.8,320,647,320,626,320C605.2,320,584,320,563,320C542.6,320,522,320,501,320C480,320,459,320,438,320C417.4,320,397,320,376,320C354.8,320,334,320,313,320C292.2,320,271,320,250,320C229.6,320,209,320,188,320C167,320,146,320,125,320C104.3,320,83,320,63,320C41.7,320,21,320,10,320L0,320Z"></path></svg>